# xmcd CD database file
#
# Track frame offsets:
#	150
#	11907
#	38640
#	61009
#	77377
#	101363
#	136228
#	165621
#	193893
#	226100
#	254353
#	283685
#	302663
#	338402
#
# Disc length: 4608 seconds
#
# Revision: 0
# Processed by: cddbd v1.5.2PL0 Copyright (c) Steve Scherf et al.
# Submitted via: CDex 1.70beta2
#
DISCID=aa11fe0e
DTITLE=DJ Tiesto - In Search Of Sunrise Vol.6 CD2
DYEAR=2007
DGENRE=New Age
TTITLE0=Steve Forte Rio - A New Dawn
TTITLE1=Nic Chagall - What You Need (NC's In Love Wi
TTITLE2=Marc Marzenit - Trozitos De Navidad (Primavera
TTITLE3=John Dahlback - Don't Speak
TTITLE4=Deadmau5 - Arguru
TTITLE5=First State Feat Anita Kelsey - Falling
TTITLE6=Jonas Steur Feat Jennifer Rene - Fall To Pieces
TTITLE7=JES - Imagination (Tiesto Remix)
TTITLE8=Tom Cloud - Mercury Room
TTITLE9=Marcus Schossow - Chase My Rabbit
TTITLE10=Maor Levi - Reflect
TTITLE11=Progression - Different Day, Different Light
TTITLE12=Jedidja - Dancing Water
TTITLE13=D'Alt Vila - Breathing
EXTD=YEAR: 2007
EXTT0=
EXTT1=
EXTT2=
EXTT3=
EXTT4=
EXTT5=
EXTT6=
EXTT7=
EXTT8=
EXTT9=
EXTT10=
EXTT11=
EXTT12=
EXTT13=
PLAYORDER=
